# xmcd
#
# Track frame offsets: 
#        150
#        16232
#        29650
#        50150
#        71547
#        85555
#        100930
#        120597
#        139110
#        156440
#        174950
#        188822
#
# Disc length: 2847 seconds
#
# Revision: 4
# Processed by: cddbd v1.5.1PL0 Copyright (c) Steve Scherf et al.
# Submitted via: ExactAudioCopy v0.90b3
#
DISCID=9c0b1d0c
DTITLE=Smokey Wilson - 88th Street Blues
DYEAR=1995
DGENRE=Blues
TTITLE0=Standing At The Crossroads
TTITLE1=You Better Watch Yourself
TTITLE2=You Don't Love Me
TTITLE3=88th Street Blues
TTITLE4=Sun Is Shining
TTITLE5=I Don't Know
TTITLE6=You Know What My Body Needs
TTITLE7=Howlin' For My Darlin'
TTITLE8=I Got Something On You Baby
TTITLE9=How Smokey Feels
TTITLE10=Smokey's Shuffle
TTITLE11=Dimples
EXTD=
EXTT0=
EXTT1=
EXTT2=
EXTT3=
EXTT4=
EXTT5=
EXTT6=
EXTT7=
EXTT8=
EXTT9=
EXTT10=
EXTT11=
PLAYORDER=
